<svg width="1169" height="494" viewBox="0 0 1169 494" fill="none" xmlns="http://www.w3.org/2000/svg">
<path d="M221.248 12.6219C212.869 19.477 201.444 29.1611 195.786 33.9488C190.237 38.7365 178.267 48.8559 169.127 56.3638C140.837 79.8669 138.007 82.5872 139.096 85.4162C139.64 86.722 139.748 89.8775 139.531 92.2713C139.096 96.2973 139.313 96.8413 142.578 98.7999C144.536 99.9969 147.365 101.303 148.889 101.738C150.412 102.173 154.111 103.588 157.049 105.002C160.096 106.308 178.05 113.925 197.092 121.759C230.932 135.904 231.802 136.122 233.978 134.272C235.175 133.075 238.44 131.008 241.16 129.485L246.274 126.764L246.6 65.2863L246.818 3.80829L243.336 2.61137C241.378 1.95851 238.984 1.08802 238.113 0.652778C237.025 0.217536 231.367 4.24353 221.248 12.6219Z" fill="#7F10AE"/>
<path d="M270.214 0.979234C269.888 1.52329 268.147 2.28496 266.406 2.7202L263.142 3.48188V65.2863V127.2L268.147 129.702C270.867 131.008 273.805 133.075 274.676 134.272C276.09 136.34 276.743 136.231 296.002 128.396C306.992 124.044 325.49 116.318 337.35 111.313C349.102 106.308 359.221 102.282 359.874 102.282C360.527 102.282 363.139 101.303 365.641 99.9969L370.32 97.7119L370.429 89.9863L370.538 82.1519L360.092 73.2295C354.325 68.4418 344.532 60.1722 338.221 55.0581C331.91 49.8352 322.879 42.2185 318.091 38.1925C313.303 34.0577 306.992 28.7259 303.946 26.3321C301.008 23.8295 292.629 16.9744 285.448 10.9898C278.266 5.00523 272.064 -6.12394e-05 271.629 -6.12394e-05C271.194 -6.12394e-05 270.65 0.435181 270.214 0.979234Z" fill="#7F10AE"/>
<path d="M129.849 115.448C128.108 117.298 125.278 119.474 123.646 120.344L120.6 121.977V156.143C120.6 188.46 120.708 190.418 122.558 189.439C123.537 188.895 135.398 184.869 148.89 180.625C180.01 170.724 203.404 163.107 215.809 158.537C230.607 153.205 230.281 152.879 202.208 141.454C165.647 126.547 136.486 114.251 135.398 113.163C133.875 111.64 133.439 111.748 129.849 115.448Z" fill="#7F10AE"/>
<path d="M367.599 116.427C360.417 119.582 354.324 122.085 311.017 139.495C297.525 144.935 285.882 149.832 285.229 150.376C284.467 151.029 283.814 152.443 283.814 153.531C283.814 155.163 292.084 158.21 334.194 171.92C361.832 180.951 385.335 188.786 386.314 189.33C387.402 189.983 388.49 190.418 388.817 190.418C389.143 190.418 389.361 174.967 389.361 156.143V121.976L386.967 120.67C385.552 119.909 382.832 117.95 380.874 116.318C378.915 114.577 376.739 113.162 375.977 113.271C375.215 113.271 371.516 114.686 367.599 116.427Z" fill="#7F10AE"/>
<path d="M93.7226 123.391C92.0904 125.458 83.0592 135.578 73.7014 146.023C38.9909 184.542 6.78292 220.667 3.62741 224.585C1.88644 226.761 0.254282 228.828 0.0366607 229.046C-0.616203 229.699 7.43578 227.087 25.3895 220.994C34.4208 217.838 50.7424 212.398 61.8411 208.916C72.9398 205.325 86.8675 200.864 92.7433 198.905L103.516 195.315L103.298 158.863C103.08 126.437 102.863 122.303 101.339 120.997C98.5103 118.93 97.0957 119.365 93.7226 123.391Z" fill="#7F10AE"/>
<path d="M408.075 120.997L405.682 122.194L405.899 158.755L406.226 195.315L410.578 196.73C412.972 197.491 436.149 205.108 462.046 213.704C487.834 222.3 509.052 229.155 509.052 228.829C509.052 228.176 501.109 218.709 493.274 210.113C479.564 194.88 469.989 184.216 464.875 178.232C461.937 174.859 452.905 164.848 444.745 155.926C436.584 147.112 426.138 135.36 421.459 130.029C416.78 124.588 412.428 120.127 411.775 120.018C411.122 119.909 409.49 120.344 408.075 120.997Z" fill="#7F10AE"/>
<path d="M174.461 189.765L121.144 207.393V248.523V289.654L150.522 299.882C166.735 305.54 185.015 311.96 191.326 314.136C197.637 316.312 206.451 319.576 210.912 321.535C215.374 323.385 221.902 325.887 225.275 326.976L231.477 329.043L235.612 325.235C237.897 323.167 241.379 320.773 243.229 320.012L246.711 318.597L246.82 255.813C246.82 221.32 246.493 190.745 246.167 187.916C245.514 183.346 244.97 182.475 241.488 180.625C239.312 179.537 236.156 177.143 234.415 175.294C232.566 173.444 230.389 171.92 229.519 172.029C228.54 172.029 203.84 179.972 174.461 189.765Z" fill="#7F10AE"/>
<path d="M274.458 175.293C272.717 177.143 269.453 179.646 267.276 180.734L263.142 182.801V250.59V318.379L266.841 320.12C268.8 321.1 272.282 323.493 274.458 325.343L278.375 328.825L289.039 325.017C294.805 322.949 308.189 318.162 318.635 314.571C329.081 310.871 338.656 307.39 339.853 306.845C341.05 306.301 347.905 303.799 355.087 301.405C368.253 296.835 371.843 295.638 382.833 291.721L388.818 289.653L389.144 248.958L389.471 208.154L335.283 190.092C305.469 180.081 280.334 171.92 279.354 171.92C278.484 171.92 276.308 173.444 274.458 175.293Z" fill="#7F10AE"/>
<path d="M101.557 213.813C101.013 214.03 91.6554 216.968 80.8831 220.341C70.1109 223.823 54.2245 228.937 45.5197 231.766C36.8148 234.595 25.825 237.968 21.0373 239.383C10.5915 242.212 1.669 246.02 2.75711 247.109C3.7364 247.979 17.1201 253.093 30.2862 257.663C35.4003 259.404 47.1518 263.648 56.4007 266.912C65.6496 270.285 80.1215 275.399 88.4999 278.337L103.733 283.669V248.414C103.733 229.046 103.516 213.268 103.189 213.377C102.863 213.377 102.21 213.595 101.557 213.813Z" fill="#7F10AE"/>
<path d="M405.466 248.523C405.248 268 405.14 283.996 405.14 283.996C405.14 283.996 440.83 271.482 459.545 264.954C477.39 258.643 498.826 251.026 505.028 248.632C506.007 248.197 506.878 247.544 506.878 247.109C506.878 246.238 497.52 241.559 495.779 241.559C495.017 241.559 482.939 237.86 468.794 233.29C431.581 221.321 410.907 214.683 408.186 213.922L405.793 213.16L405.466 248.523Z" fill="#7F10AE"/>
<path d="M1.45138 267.565C1.12495 268.218 8.8505 277.14 18.6435 287.477C28.4364 297.814 42.7994 313.374 50.4162 322.079C58.1417 330.784 67.8259 341.556 72.0695 346.017C76.3131 350.587 83.821 358.748 88.8263 364.297C95.7902 372.023 98.4016 374.199 100.469 374.09C101.884 373.982 102.754 373.438 102.536 373.002C102.21 372.567 102.428 372.132 103.08 372.132C104.277 372.132 103.516 302.384 102.319 301.296C101.884 300.861 93.7228 297.814 84.1474 294.55C74.5721 291.177 53.5717 283.886 37.3589 278.228C4.28046 266.694 2.43068 266.15 1.45138 267.565Z" fill="#7F10AE"/>
<path d="M486.746 273.005C476.626 276.487 463.351 281.166 457.367 283.451C451.382 285.627 438.651 290.089 429.076 293.353C419.501 296.617 410.36 299.773 408.728 300.426L405.682 301.623V336.877V372.132L408.62 373.329C411.34 374.308 411.993 374.09 414.822 370.826C436.257 346.779 479.129 299.446 491.316 286.498C504.917 272.026 509.052 266.477 506.114 266.586C505.57 266.586 496.974 269.523 486.746 273.005Z" fill="#7F10AE"/>
<path d="M120.6 341.121V374.308L123.102 375.287C124.517 375.831 127.237 377.681 129.196 379.313C132.678 382.142 133.004 382.251 137.683 381.054C140.403 380.292 149.543 377.028 158.03 373.764C183.166 364.189 219.944 350.587 222.99 349.826C225.167 349.281 225.819 348.411 225.928 346.235C225.928 343.515 225.384 343.079 216.571 340.468C211.348 338.836 190.238 331.654 169.564 324.255C132.678 311.198 122.993 307.933 121.47 307.933C120.926 307.933 120.6 322.84 120.6 341.121Z" fill="#7F10AE"/>
<path d="M376.848 311.634C370.863 313.701 353.018 319.794 337.132 325.344C321.245 330.893 302.747 337.204 296.11 339.38C284.25 343.189 283.814 343.406 283.814 346.453C283.814 348.194 284.141 349.391 284.467 348.956C285.229 348.194 292.084 350.588 312.105 358.531C320.81 361.904 331.038 365.93 334.955 367.345C338.873 368.868 345.945 371.588 350.733 373.438C355.521 375.397 362.92 378.226 367.272 379.858L375.107 382.687L380.221 379.096C383.05 377.138 386.205 375.179 387.293 374.853C389.252 374.2 389.361 372.35 389.361 341.013C389.361 322.841 389.034 307.934 388.599 308.043C388.055 308.043 382.832 309.675 376.848 311.634Z" fill="#7F10AE"/>
<path d="M274.023 366.147C272.064 368.215 268.691 370.5 266.732 371.152L263.142 372.349V430.345C263.142 487.797 263.142 488.45 265.318 489.103C266.624 489.538 268.473 490.844 269.67 492.041C271.738 494.217 271.738 494.217 290.997 478.113C301.661 469.191 316.676 456.569 324.511 450.149C332.345 443.729 342.465 435.351 346.926 431.651C351.387 427.952 358.677 422.076 363.03 418.594C369.45 413.48 370.755 411.956 370.32 409.889C369.994 408.583 369.558 405.319 369.341 402.599L368.906 397.702L357.154 393.023C337.677 385.298 294.588 368.867 287.624 366.474C284.033 365.277 280.66 363.753 280.116 363.318C278.484 361.795 277.94 362.012 274.023 366.147Z" fill="#7F10AE"/>
<path d="M210.367 371.153C190.129 378.878 176.31 384.101 155.201 391.827C148.454 394.329 142.47 396.723 141.817 397.267C141.273 397.92 140.729 399.77 140.62 401.511C140.511 403.252 140.185 406.299 139.749 408.366C139.097 411.957 139.314 412.174 151.827 422.403C188.823 452.543 201.663 463.315 220.596 479.637C229.845 487.471 237.897 494 238.549 494C238.876 494 240.073 493.13 241.27 491.933C242.358 490.844 243.881 489.756 244.643 489.43C245.622 489.104 246.057 476.481 246.493 437.418C246.71 409.019 246.71 382.687 246.275 378.987C245.622 372.894 245.296 372.241 242.575 371.262C240.943 370.609 237.788 368.65 235.72 366.8C233.544 364.951 231.368 363.427 230.933 363.536C230.389 363.645 221.14 367.018 210.367 371.153Z" fill="#7F10AE"/>
<path d="M655.952 185.357H631.174C631.174 165.511 635.63 152.201 644.543 145.427C653.575 138.534 671.163 135.088 697.308 135.088C725.711 135.088 744.903 139.307 754.886 147.745C764.869 156.063 769.86 171.988 769.86 195.518V308H744.903L746.864 289.639L746.33 289.461C736.822 303.484 717.511 310.496 688.395 310.496C645.375 310.496 623.865 293.204 623.865 258.622C623.865 238.063 628.678 223.861 638.304 216.018C647.93 208.175 665.34 204.253 690.534 204.253C720.482 204.253 738.427 210.135 744.369 221.901L744.903 221.722V201.044C744.903 181.554 742.23 168.957 736.882 163.253C731.534 157.43 719.828 154.518 701.765 154.518C671.104 154.518 655.774 163.134 655.774 180.366C655.774 181.198 655.833 182.862 655.952 185.357ZM696.06 223.683C676.927 223.683 664.449 225.703 658.626 229.744C652.921 233.785 650.069 242.46 650.069 255.77C650.069 269.555 652.921 278.706 658.626 283.222C664.33 287.619 675.917 289.818 693.386 289.818C728.563 289.818 746.151 279.122 746.151 257.731C746.151 244.302 742.705 235.27 735.812 230.635C729.038 226.001 715.788 223.683 696.06 223.683ZM958.637 137.584V319.052C958.637 343.771 953.289 360.765 942.594 370.034C931.898 379.304 912.289 383.939 883.768 383.939C858.336 383.939 840.985 380.017 831.716 372.174C822.446 364.33 817.812 349.653 817.812 328.143H841.877C841.877 342.761 844.551 352.268 849.898 356.665C855.365 361.062 867.249 363.261 885.55 363.261C904.565 363.261 917.34 360.408 923.876 354.704C930.412 349 933.681 337.829 933.681 321.191V286.965L933.146 286.787C926.728 302.593 908.189 310.496 877.529 310.496C852.335 310.496 834.984 304.316 825.477 291.957C815.97 279.478 811.216 256.78 811.216 223.861C811.216 189.754 816.029 166.462 825.655 153.984C835.4 141.387 853.404 135.088 879.668 135.088C907.595 135.088 925.837 143.645 934.394 160.757L934.928 160.579L933.681 137.584H958.637ZM884.303 155.766C864.694 155.766 851.978 159.926 846.155 168.244C840.332 176.444 837.42 194.508 837.42 222.435C837.42 250.6 840.332 268.902 846.155 277.339C851.978 285.658 864.694 289.818 884.303 289.818C904.149 289.818 917.221 285.242 923.52 276.092C929.818 266.822 932.967 247.629 932.967 218.514C932.967 192.844 929.818 175.969 923.52 167.888C917.221 159.807 904.149 155.766 884.303 155.766ZM1027.45 64.6755V92.6622H1002.49V64.6755H1027.45ZM1027.45 137.584V308H1002.49V137.584H1027.45ZM1161.67 137.584V158.262H1096.08V262.544C1096.08 280.726 1104.16 289.818 1120.32 289.818C1136.36 289.818 1144.38 281.677 1144.38 265.396L1144.56 257.018L1144.92 247.57H1168.09L1168.27 260.226C1168.27 293.739 1152.35 310.496 1120.5 310.496C1087.58 310.496 1071.12 296.532 1071.12 268.605V262.544V158.262H1047.59V137.584H1071.12V96.584H1096.08V137.584H1161.67Z" fill="#F0ECEC"/>
<path d="M742.661 457.997H722.131L719.012 466.583H714.169L729.024 426.029H735.441L750.594 466.583H745.81L742.661 457.997ZM741.324 454.551L732.322 429.773L723.439 454.551H741.324ZM759.328 426.029V466.583H754.753V426.029H759.328ZM817.025 426.029V466.583H809.508L792.514 438.983L789.751 434.437L788.385 432.179L787.018 429.921H786.899L786.929 431.437L786.959 432.982V436.012V466.583H782.383V426.029H789.87L804.695 450.213L808.558 456.571L810.489 459.72L812.39 462.899H812.509L812.479 461.384L812.45 459.839V456.809V426.029H817.025ZM849.676 457.997H829.147L826.027 466.583H821.184L836.039 426.029H842.457L857.609 466.583H852.826L849.676 457.997ZM848.339 454.551L839.337 429.773L830.454 454.551H848.339ZM875.91 430.278V466.583H871.335V430.278H858.114V426.029H889.012V430.278H875.91ZM897.658 426.029V466.583H893.083V426.029H897.658ZM931.824 426.029H936.726L922.377 466.583H915.84L901.342 426.029H906.214L917.029 456.66L918.098 459.78C918.494 460.988 918.821 462.028 919.079 462.899H919.198C919.792 460.899 920.455 458.839 921.188 456.72L931.824 426.029ZM943.263 429.892V443.707H963.852V447.569H943.263V462.721H964.743V466.583H938.687V426.029H964.743V429.892H943.263ZM1000.31 446.41H1017.69C1017.77 447.46 1017.8 448.936 1017.8 450.837C1017.8 458.146 1016.9 462.672 1015.1 464.415C1013.32 466.138 1008.64 466.999 1001.08 466.999C993.928 466.999 989.333 465.979 987.293 463.939C985.253 461.879 984.233 457.274 984.233 450.124L984.203 444.152L984.233 440.558C984.233 434.556 985.362 430.565 987.62 428.584C989.897 426.604 994.473 425.613 1001.35 425.613C1008.24 425.613 1012.68 426.267 1014.69 427.574C1016.69 428.862 1017.69 431.754 1017.69 436.25V437.795H1013.2V436.784C1013.2 433.477 1012.52 431.437 1011.15 430.664C1009.8 429.872 1006.27 429.476 1000.54 429.476C995.255 429.476 991.947 430.11 990.62 431.377C989.293 432.625 988.63 435.764 988.63 440.795L988.57 446.173L988.6 451.966C988.6 457.076 989.333 460.216 990.799 461.384C992.284 462.553 996.226 463.137 1002.62 463.137C1007.52 463.137 1010.54 462.583 1011.68 461.473C1012.85 460.364 1013.44 457.463 1013.44 452.768C1013.44 452.392 1013.36 451.56 1013.2 450.273H1000.31V446.41ZM1028.08 426.029V466.583H1023.51V426.029H1028.08ZM1050.07 430.278V466.583H1045.49V430.278H1032.27V426.029H1063.17V430.278H1050.07Z" fill="#F0ECEC"/>
</svg>
